<svg width="859" height="694" viewBox="0 0 859 694" fill="none" xmlns="http://www.w3.org/2000/svg">
<path d="M592.499 134L6 471.131L23.6188 499.974L610.118 162.843L592.499 134Z" fill="#F2F2F2"/>
<path d="M720.386 162.805L133.548 499.346L151.197 528.17L738.035 191.63L720.386 162.805Z" fill="#F2F2F2"/>
<path d="M833.357 193.666L246.519 530.206L264.167 559.03L851.006 222.49L833.357 193.666Z" fill="#F2F2F2"/>
<path d="M388.239 529.097C489.711 529.097 571.971 449.486 571.971 351.281C571.971 253.076 489.711 173.465 388.239 173.465C286.766 173.465 204.506 253.076 204.506 351.281C204.506 449.486 286.766 529.097 388.239 529.097Z" fill="white"/>
<path d="M203.14 351.281C203.14 252.504 286.175 172.142 388.239 172.142C490.302 172.142 573.337 252.504 573.337 351.281C573.337 450.058 490.302 530.419 388.239 530.419C286.175 530.419 203.14 450.058 203.14 351.281ZM205.873 351.281C205.873 448.599 287.682 527.774 388.239 527.774C488.795 527.774 570.604 448.599 570.604 351.281C570.604 253.962 488.795 174.788 388.239 174.788C287.682 174.788 205.873 253.962 205.873 351.281H205.873Z" fill="#3F3D56"/>
<path d="M355.486 352.054C355.486 345.785 357.407 339.656 361.006 334.444C364.605 329.231 369.72 325.168 375.705 322.769C381.69 320.37 388.275 319.742 394.628 320.965C400.982 322.188 406.817 325.207 411.398 329.64C415.978 334.073 419.098 339.721 420.362 345.87C421.625 352.019 420.977 358.392 418.498 364.184C416.019 369.976 411.821 374.927 406.435 378.41C401.049 381.893 394.716 383.752 388.239 383.752C379.552 383.752 371.221 380.412 365.079 374.468C358.937 368.523 355.486 360.461 355.486 352.054V352.054ZM388.239 321.903C379.979 321.912 372.06 325.091 366.219 330.744C360.379 336.396 357.093 344.06 357.084 352.054V352.054C357.084 358.017 358.911 363.847 362.335 368.805C365.758 373.764 370.623 377.628 376.316 379.91C382.009 382.192 388.273 382.789 394.317 381.626C400.36 380.463 405.911 377.591 410.268 373.374C414.625 369.157 417.593 363.785 418.795 357.936C419.997 352.087 419.38 346.025 417.022 340.516C414.664 335.006 410.671 330.297 405.547 326.984C400.424 323.671 394.4 321.903 388.239 321.903V321.903Z" fill="#3F3D56"/>
<path d="M325.929 352.054C325.929 340.127 329.584 328.468 336.43 318.552C343.277 308.635 353.008 300.906 364.394 296.341C375.78 291.777 388.308 290.583 400.395 292.91C412.481 295.237 423.584 300.98 432.298 309.414C441.012 317.847 446.946 328.592 449.351 340.29C451.755 351.987 450.521 364.112 445.805 375.131C441.089 386.15 433.102 395.568 422.856 402.194C412.609 408.82 400.562 412.357 388.239 412.357C380.056 412.357 371.954 410.797 364.394 407.767C356.834 404.736 349.965 400.294 344.179 394.695C338.393 389.095 333.804 382.447 330.672 375.131C327.541 367.815 325.929 359.973 325.929 352.054V352.054ZM388.239 293.297C376.231 293.297 364.493 296.743 354.509 303.2C344.525 309.656 336.744 318.832 332.148 329.569C327.553 340.305 326.351 352.119 328.694 363.517C331.036 374.915 336.818 385.384 345.309 393.601C353.8 401.818 364.617 407.414 376.394 409.682C388.171 411.949 400.378 410.785 411.472 406.338C422.565 401.891 432.047 394.36 438.718 384.697C445.389 375.035 448.95 363.675 448.95 352.054C448.932 336.476 442.53 321.541 431.148 310.526C419.766 299.511 404.335 293.315 388.239 293.297Z" fill="#CCCCCC"/>
<path d="M266.816 352.054C266.816 328.812 273.937 306.092 287.279 286.767C300.621 267.442 319.585 252.38 341.772 243.486C363.959 234.592 388.373 232.265 411.927 236.799C435.481 241.333 457.116 252.525 474.098 268.96C491.079 285.394 502.643 306.333 507.329 329.128C512.014 351.924 509.609 375.552 500.419 397.024C491.229 418.497 475.666 436.85 455.698 449.763C435.73 462.675 412.254 469.567 388.239 469.567C356.046 469.532 325.183 457.14 302.42 435.109C279.656 413.079 266.852 383.21 266.816 352.054V352.054ZM388.239 236.087C364.539 236.087 341.372 242.888 321.667 255.631C301.962 268.374 286.604 286.485 277.534 307.675C268.465 328.866 266.092 352.183 270.716 374.678C275.339 397.173 286.751 417.837 303.509 434.055C320.267 450.273 341.618 461.318 364.862 465.793C388.106 470.267 412.199 467.971 434.094 459.193C455.989 450.416 474.703 435.552 487.87 416.482C501.036 397.411 508.064 374.99 508.064 352.054C508.028 321.308 495.392 291.832 472.928 270.091C450.464 248.351 420.007 236.122 388.239 236.087V236.087Z" fill="#CCCCCC"/>
<path d="M388.239 365.97C396.621 365.97 403.417 359.393 403.417 351.281C403.417 343.168 396.621 336.592 388.239 336.592C379.856 336.592 373.061 343.168 373.061 351.281C373.061 359.393 379.856 365.97 388.239 365.97Z" fill="#142850"/>
<path d="M349.096 408.491C357.478 408.491 364.274 401.915 364.274 393.802C364.274 385.69 357.478 379.113 349.096 379.113C340.713 379.113 333.918 385.69 333.918 393.802C333.918 401.915 340.713 408.491 349.096 408.491Z" fill="#142850"/>
<path d="M501.805 402.306C510.187 402.306 516.983 395.73 516.983 387.617C516.983 379.505 510.187 372.928 501.805 372.928C493.422 372.928 486.627 379.505 486.627 387.617C486.627 395.73 493.422 402.306 501.805 402.306Z" fill="#142850"/>
<path d="M388.239 358.239C392.209 358.239 395.428 355.124 395.428 351.281C395.428 347.438 392.209 344.323 388.239 344.323C384.268 344.323 381.049 347.438 381.049 351.281C381.049 355.124 384.268 358.239 388.239 358.239Z" fill="#2F2E41"/>
<path d="M501.805 394.575C505.776 394.575 508.994 391.46 508.994 387.617C508.994 383.774 505.776 380.659 501.805 380.659C497.834 380.659 494.615 383.774 494.615 387.617C494.615 391.46 497.834 394.575 501.805 394.575Z" fill="#2F2E41"/>
<path d="M349.096 401.533C353.066 401.533 356.285 398.418 356.285 394.575C356.285 390.732 353.066 387.617 349.096 387.617C345.125 387.617 341.906 390.732 341.906 394.575C341.906 398.418 345.125 401.533 349.096 401.533Z" fill="#2F2E41"/>
<path d="M52.7277 280.154C56.6984 280.154 59.9172 277.039 59.9172 273.196C59.9172 269.354 56.6984 266.238 52.7277 266.238C48.7571 266.238 45.5382 269.354 45.5382 273.196C45.5382 277.039 48.7571 280.154 52.7277 280.154Z" fill="#142850"/>
<path d="M387.839 273.584H72.2985V272.037H389.438V351.667H387.839V273.584Z" fill="#2F2E41"/>
<path d="M31.9579 273.196C31.9579 269.221 33.176 265.335 35.4582 262.029C37.7404 258.723 40.9842 256.147 44.7794 254.626C48.5745 253.104 52.7506 252.706 56.7796 253.482C60.8085 254.257 64.5093 256.172 67.414 258.983C70.3187 261.794 72.2969 265.376 73.0983 269.275C73.8997 273.174 73.4884 277.216 71.9164 280.889C70.3444 284.562 67.6822 287.701 64.2667 289.91C60.8511 292.118 56.8355 293.297 52.7277 293.297C50.0001 293.297 47.2993 292.777 44.7794 291.767C42.2595 290.757 39.9699 289.277 38.0412 287.41C36.1126 285.543 34.5827 283.328 33.5389 280.889C32.4951 278.45 31.9579 275.836 31.9579 273.196V273.196ZM52.7277 254.642C48.9358 254.642 45.229 255.73 42.0762 257.769C38.9234 259.808 36.466 262.705 35.015 266.096C33.5639 269.486 33.1842 273.217 33.9239 276.816C34.6637 280.416 36.4897 283.722 39.1709 286.317C41.8522 288.912 45.2683 290.679 48.9873 291.395C52.7063 292.111 56.5612 291.743 60.0644 290.339C63.5677 288.934 66.5619 286.556 68.6686 283.505C70.7753 280.454 71.8997 276.866 71.8997 273.196C71.8938 268.277 69.8721 263.561 66.2779 260.083C62.6837 256.604 57.8106 254.647 52.7277 254.642V254.642Z" fill="#2F2E41"/>
<path d="M100.658 480.391C104.628 480.391 107.847 477.276 107.847 473.433C107.847 469.59 104.628 466.475 100.658 466.475C96.6872 466.475 93.4683 469.59 93.4683 473.433C93.4683 477.276 96.6872 480.391 100.658 480.391Z" fill="#142850"/>
<path d="M79.8881 473.433C79.8881 469.457 81.1062 465.571 83.3884 462.265C85.6707 458.96 88.9144 456.383 92.7096 454.862C96.5048 453.34 100.681 452.942 104.71 453.718C108.739 454.494 112.44 456.408 115.344 459.219C118.249 462.03 120.227 465.612 121.028 469.511C121.83 473.41 121.419 477.452 119.847 481.125C118.275 484.798 115.612 487.937 112.197 490.146C108.781 492.355 104.766 493.534 100.658 493.534C95.1494 493.534 89.8665 491.416 85.9714 487.646C82.0764 483.877 79.8881 478.764 79.8881 473.433V473.433ZM100.658 454.878C96.866 454.878 93.1593 455.966 90.0064 458.005C86.8536 460.044 84.3963 462.942 82.9452 466.332C81.4941 469.723 81.1144 473.453 81.8541 477.053C82.5939 480.652 84.4199 483.958 87.1011 486.553C89.7824 489.148 93.1985 490.915 96.9175 491.631C100.637 492.347 104.491 491.979 107.995 490.575C111.498 489.171 114.492 486.792 116.599 483.741C118.705 480.69 119.83 477.102 119.83 473.433C119.824 468.513 117.802 463.797 114.208 460.319C110.614 456.84 105.741 454.884 100.658 454.878Z" fill="#2F2E41"/>
<path d="M718.68 178.035C722.651 178.035 725.869 174.92 725.869 171.077C725.869 167.234 722.651 164.119 718.68 164.119C714.709 164.119 711.49 167.234 711.49 171.077C711.49 174.92 714.709 178.035 718.68 178.035Z" fill="#142850"/>
<path d="M697.91 171.077C697.91 167.101 699.128 163.215 701.411 159.909C703.693 156.604 706.937 154.027 710.732 152.506C714.527 150.984 718.703 150.586 722.732 151.362C726.761 152.138 730.462 154.052 733.366 156.863C736.271 159.674 738.249 163.256 739.051 167.155C739.852 171.054 739.441 175.096 737.869 178.769C736.297 182.442 733.635 185.581 730.219 187.79C726.803 189.999 722.788 191.178 718.68 191.178C715.953 191.178 713.252 190.658 710.732 189.648C708.212 188.637 705.922 187.157 703.994 185.29C702.065 183.424 700.535 181.208 699.491 178.769C698.447 176.33 697.91 173.716 697.91 171.077V171.077ZM718.68 152.522C713.597 152.528 708.724 154.484 705.13 157.963C701.535 161.441 699.514 166.157 699.508 171.077V171.077C699.508 174.746 700.632 178.334 702.739 181.385C704.846 184.436 707.84 186.815 711.343 188.219C714.846 189.623 718.701 189.991 722.42 189.275C726.139 188.559 729.556 186.792 732.237 184.197C734.918 181.602 736.744 178.296 737.484 174.697C738.223 171.097 737.844 167.367 736.393 163.976C734.942 160.586 732.484 157.688 729.331 155.649C726.179 153.61 722.472 152.522 718.68 152.522V152.522Z" fill="#2F2E41"/>
<path d="M501.006 307.998L704.697 304.894L704.721 306.44L502.603 309.521V387.617H501.006V307.998Z" fill="#2F2E41"/>
<path d="M120.629 472.66H348.297V394.576H349.894V474.205H120.629V472.66Z" fill="#2F2E41"/>
<path d="M96.6637 309.533H8.79175V314.945H96.6637V309.533Z" fill="#CCCCCC"/>
<path d="M96.6637 324.995H8.79175V330.407H96.6637V324.995Z" fill="#CCCCCC"/>
<path d="M96.6637 340.457H8.79175V345.869H96.6637V340.457Z" fill="#CCCCCC"/>
<path d="M144.594 509.769H56.7218V515.181H144.594V509.769Z" fill="#CCCCCC"/>
<path d="M144.594 525.231H56.7218V530.643H144.594V525.231Z" fill="#CCCCCC"/>
<path d="M144.594 540.693H56.7218V546.105H144.594V540.693Z" fill="#CCCCCC"/>
<path d="M762.616 208.186H674.744V213.598H762.616V208.186Z" fill="#CCCCCC"/>
<path d="M762.616 223.648H674.744V229.06H762.616V223.648Z" fill="#CCCCCC"/>
<path d="M762.616 239.111H674.744V244.522H762.616V239.111Z" fill="#CCCCCC"/>
</svg>
